<svg xmlns="http://www.w3.org/2000/svg" style="display:none">
  <symbol id="ph-menu" viewBox="0 0 24 24"><path d="M4 7h16M4 12h16M4 17h16" fill="none" stroke="currentColor" stroke-width="1.8" stroke-linecap="round"/></symbol>
  <symbol id="ph-x" viewBox="0 0 24 24"><path d="M6 6l12 12M18 6L6 18" fill="none" stroke="currentColor" stroke-width="1.8" stroke-linecap="round"/></symbol>
  <symbol id="ph-eye" viewBox="0 0 24 24"><path d="M2.5 12s3.5-6 9.5-6 9.5 6 9.5 6-3.5 6-9.5 6-9.5-6-9.5-6z" fill="none" stroke="currentColor" stroke-width="1.6"/><circle cx="12" cy="12" r="2.8" fill="none" stroke="currentColor" stroke-width="1.6"/></symbol>
  <symbol id="ph-lock" viewBox="0 0 24 24"><rect x="5" y="10" width="14" height="10" rx="1.5" fill="none" stroke="currentColor" stroke-width="1.6"/><path d="M8 10V7a4 4 0 018 0v3" fill="none" stroke="currentColor" stroke-width="1.6"/></symbol>
  <symbol id="ph-lock-simple" viewBox="0 0 24 24"><rect x="6" y="10" width="12" height="10" rx="1.5" fill="none" stroke="currentColor" stroke-width="1.6"/><path d="M8.5 10V7.5a3.5 3.5 0 017 0V10" fill="none" stroke="currentColor" stroke-width="1.6" stroke-linecap="round"/></symbol>
  <symbol id="ph-shield-check" viewBox="0 0 24 24"><path d="M12 3l7 2.8v5.6c0 4.2-2.8 7.8-7 9.6-4.2-1.8-7-5.4-7-9.6V5.8L12 3z" fill="none" stroke="currentColor" stroke-width="1.6" stroke-linejoin="round"/><path d="M8.7 12.3l2.1 2.1 4.6-4.8" fill="none" stroke="currentColor" stroke-width="1.7" stroke-linecap="round" stroke-linejoin="round"/></symbol>
  <symbol id="ph-calendar" viewBox="0 0 24 24"><rect x="4" y="5.5" width="16" height="15" rx="1.8" fill="none" stroke="currentColor" stroke-width="1.6"/><path d="M8 3.5v4M16 3.5v4M4 10h16" fill="none" stroke="currentColor" stroke-width="1.6" stroke-linecap="round"/></symbol>
  <symbol id="ph-lightning" viewBox="0 0 24 24"><path d="M13 2.8L5.8 13h5.4L10 21.2 18.2 10h-5.4L13 2.8z" fill="none" stroke="currentColor" stroke-width="1.6" stroke-linejoin="round"/></symbol>
  <symbol id="ph-users" viewBox="0 0 24 24"><circle cx="9" cy="8" r="3" fill="none" stroke="currentColor" stroke-width="1.6"/><path d="M3.5 19c.8-3.2 2.7-5 5.5-5s4.7 1.8 5.5 5" fill="none" stroke="currentColor" stroke-width="1.6" stroke-linecap="round"/><path d="M15.2 11.2a2.7 2.7 0 10.2-5.3M15.5 14.4c2.5.4 4.1 2 5 4.6" fill="none" stroke="currentColor" stroke-width="1.6" stroke-linecap="round"/></symbol>
  <symbol id="ph-check" viewBox="0 0 24 24"><path d="M5 12.5l4.2 4.2L19 7" fill="none" stroke="currentColor" stroke-width="1.8" stroke-linecap="round" stroke-linejoin="round"/></symbol>
  <symbol id="ph-download" viewBox="0 0 24 24"><path d="M12 4v10m0 0l-4-4m4 4l4-4M5 19h14" fill="none" stroke="currentColor" stroke-width="1.7" stroke-linecap="round" stroke-linejoin="round"/></symbol>
  <symbol id="ph-chart" viewBox="0 0 24 24"><path d="M4 19V5m0 14h16M8 15l3-4 3 2 4-7" fill="none" stroke="currentColor" stroke-width="1.7" stroke-linecap="round" stroke-linejoin="round"/></symbol>
  <symbol id="ph-arrow" viewBox="0 0 24 24"><path d="M5 12h14m0 0l-5-5m5 5l-5 5" fill="none" stroke="currentColor" stroke-width="1.7" stroke-linecap="round" stroke-linejoin="round"/></symbol>
</svg>
